# xmcd CD database file
#
# Track frame offsets:
#	150
#	55523
#	91433
#	123235
#	157247
#	185424
#	209193
#	251539
#
# Disc length: 3683 seconds
#
# Revision: 0
# Processed by: cddbd v1.5.1PL0 Copyright (c) Steve Scherf et al.
# Submitted via: CDex 1.51
#
DISCID=700e6108
DTITLE=Jamie Oehlers - The Assemblers
DYEAR=2004
DGENRE=Jazz
TTITLE0=The Replicators
TTITLE1=Hat in the Cat
TTITLE2=Midnight Mourning
TTITLE3=Undercover
TTITLE4=Tomorrow's Yesterday
TTITLE5=Beautiful Freak
TTITLE6=The Assemblers
TTITLE7=Protest
EXTD=YEAR: 2004
EXTT0=
EXTT1=
EXTT2=
EXTT3=
EXTT4=
EXTT5=
EXTT6=
EXTT7=
PLAYORDER=
